<svg width="110" height="110" viewBox="0 0 110 110" fill="none" xmlns="http://www.w3.org/2000/svg">
<path d="M36.1259 27.1309C30.6251 26.5324 25.0757 27.2146 19.9215 29.2076C14.7673 31.2005 10.2462 34.3829 6.80952 38.4373C3.3728 42.4917 1.14053 47.2763 0.335429 52.3137C-0.46967 57.3511 0.180547 62.4652 2.22121 67.1459C4.26187 71.8265 7.62163 75.9099 11.9653 78.9888C16.3089 82.0677 21.4846 84.0344 26.9759 84.6926C32.4672 85.3508 38.0822 84.6775 43.2606 82.74C48.439 80.8025 52.7344 77.6566 56.2225 73.6387L45.625 65.9285C43.6577 68.1946 41.1694 69.9479 38.2489 71.0407C35.3283 72.1334 32.1615 72.5131 29.0644 72.1419C25.9674 71.7707 23.0483 70.6615 20.5986 68.925C18.1488 67.1886 16.2539 64.8856 15.103 62.2457C13.9521 59.6059 13.5854 56.7216 14.0394 53.8805C14.4935 51.0395 15.7525 48.341 17.6908 46.0544C19.629 43.7677 22.1789 41.9729 25.0858 40.8489C27.9928 39.7249 31.1841 39.2309 34.2866 39.5685L36.1259 27.1309Z" fill="#00A79D"/>
<path d="M56.2225 73.6387C59.8934 77.7711 64.7321 80.7941 69.891 82.7748C75.05 84.7555 80.5409 85.4307 85.8158 84.7329C91.0907 84.0351 95.9652 81.9887 99.953 78.798C103.941 75.6073 106.902 71.3838 108.543 66.5488C110.183 61.7138 110.444 56.4364 109.3 51.2432C108.156 46.05 105.647 41.1224 102.023 36.9522C98.3995 32.782 93.7879 29.515 88.6483 27.477C83.5087 25.439 77.9515 24.5685 72.663 25.2048L75.4741 38.1979C78.4568 37.839 81.5845 38.3531 84.4831 39.5025C87.3818 40.6519 89.9827 42.4945 92.0264 44.8465C94.0701 47.1984 95.4851 49.9775 96.1303 52.9064C96.7755 55.8354 96.6282 58.8118 95.7033 61.5386C94.7783 64.2655 93.1079 66.6476 90.8589 68.4471C88.6098 70.2466 85.8606 71.4008 82.8856 71.7943C79.9106 72.1879 76.8138 71.8071 73.9042 70.69C70.9946 69.5729 68.2831 67.7854 66.2128 65.4547L56.2225 73.6387Z" fill="#303642"/>
<path d="M34.2866 39.5685L36.1259 27.1309L56.488 64.3318L72.663 25.2048L75.4741 38.1979L66.2128 65.4547L56.2225 73.6387L45.625 65.9285L34.2866 39.5685Z" fill="url(#paint0_linear_159_102)"/>
<defs>
<linearGradient id="paint0_linear_159_102" x1="55.2844" y1="24.7113" x2="53.8967" y2="73.5726" gradientUnits="userSpaceOnUse">
<stop stop-color="#00A79D"/>
<stop offset="1" stop-color="#303642"/>
</linearGradient>
</defs>
</svg>
